<svg xmlns="http://www.w3.org/2000/svg" width="520" height="410" viewBox="0 0 520 410">
  <defs>
    <linearGradient id="paper" x2="1" y2="0"><stop stop-color="#a77c45"/><stop offset=".06" stop-color="#d8b778"/><stop offset=".5" stop-color="#e2c993"/><stop offset=".94" stop-color="#d4ad6d"/><stop offset="1" stop-color="#997445"/></linearGradient>
    <linearGradient id="roll" x2="0" y2="1"><stop stop-color="#e3ce9a"/><stop offset=".45" stop-color="#c2a06c"/><stop offset="1" stop-color="#907044"/></linearGradient>
  </defs>
  <rect width="520" height="410" fill="#26231c"/>
  <rect x="25" y="22" width="470" height="363" fill="url(#paper)"/>
  <rect x="18" y="12" width="484" height="23" fill="url(#roll)"/>
  <rect x="18" y="374" width="484" height="23" fill="url(#roll)"/>
  <g font-family="monospace" fill="#302519" font-weight="bold">
    <text x="260" y="72" text-anchor="middle" font-size="23">BOSS OF THE WEEK</text>
    <text x="260" y="101" text-anchor="middle" font-size="17">SCURRIUS HISCORES</text>
    <text x="260" y="132" text-anchor="middle" font-size="16">TEST</text>
  </g>
  <path d="M55 148H465M55 179H465" stroke="#a17b4c" stroke-width="2"/>
  <g font-family="monospace" font-size="16" fill="#302519">
    <text x="60" y="173">RANK</text><text x="138" y="173">NAME</text><text x="353" y="173">POINTS</text>
    <text x="72" y="207">1</text><text x="138" y="207">ILLBEBANSOON</text><text x="374" y="207">1,000</text>
    <text x="72" y="232">2</text><text x="138" y="232">IRON WILLOW</text><text x="384" y="232">895</text>
    <text x="72" y="257">3</text><text x="138" y="257">RUNE ARCHER</text><text x="384" y="257">720</text>
    <text x="72" y="282">4</text><text x="138" y="282">VORKI HUNTER</text><text x="384" y="282">645</text>
    <text x="72" y="307">5</text><text x="138" y="307">CLAN HERO</text><text x="384" y="307">405</text>
    <text x="260" y="357" text-anchor="middle" fill="#5b4329" font-size="10">Code: 52QR2U</text>
  </g>
</svg>
